<?xml version="1.0" encoding="iso-8859-1"?>
<!-- Generator: Adobe Illustrator 19.0.0, SVG Export Plug-In . SVG Version: 6.00 Build 0)  -->
<svg version="1.1" id="Layer_1" xmlns="http://www.w3.org/2000/svg" xmlns:xlink="http://www.w3.org/1999/xlink" x="0px" y="0px"
	 viewBox="0 0 511.965 511.965" style="enable-background:new 0 0 511.965 511.965;" xml:space="preserve">
<g>
	<g>
		<path d="M447.983,63.965c-113.28,0-176.811-57.664-177.429-58.261c-8.149-7.595-20.907-7.616-29.141,0
			c-0.619,0.597-64.149,58.261-177.429,58.261c-11.797,0-21.333,9.557-21.333,21.333v154.432
			c0,80.811,46.208,167.317,120.555,225.749c26.944,21.184,56.107,36.523,86.72,45.589c1.984,0.597,4.011,0.896,6.059,0.896
			c2.048,0,4.075-0.299,6.059-0.896c30.613-9.067,59.776-24.405,86.72-45.589c74.347-58.432,120.555-144.939,120.555-225.749V85.299
			C469.316,73.523,459.78,63.965,447.983,63.965z M164.399,240.883c3.989,3.989,6.251,9.429,6.251,15.083v42.56
			c11.051,0.896,20.459,10.155,20.459,21.355c0,11.776-8.661,21.419-20.459,21.419c-25.131,0-42.667-17.536-42.667-42.667v-33.835
			L112.9,249.715c-8.341-8.341-8.341-21.824,0-30.165l15.083-15.083v-33.835c0-25.131,17.536-42.667,42.667-42.667
			c11.797,0,21.333,9.557,21.333,21.333c0,11.733-9.451,21.248-21.163,21.333l-0.171,42.667c0,5.653-2.261,11.093-6.251,15.083
			l-6.251,6.251L164.399,240.883z M298.009,154.483l-42.667,170.667c-2.432,9.685-11.115,16.149-20.672,16.149
			c-1.707,0-3.456-0.192-5.184-0.64c-11.435-2.859-18.411-14.443-15.531-25.877l42.667-170.667
			c2.837-11.413,14.379-18.432,25.856-15.509C293.913,131.464,300.868,143.048,298.009,154.483z M399.065,249.715l-15.083,15.083
			v33.835c0,25.131-17.536,42.667-42.667,42.667c-11.797,0-21.333-9.557-21.333-21.333c0-11.733,9.451-21.248,21.163-21.333
			l0.171-42.667c0-5.653,2.24-11.093,6.251-15.083l6.251-6.251l-6.251-6.251c-4.011-3.989-6.251-9.429-6.251-15.083v-42.56
			c-11.051-0.896-20.459-10.155-20.459-21.355c0-11.776,8.661-21.419,20.459-21.419c25.131,0,42.667,17.536,42.667,42.667v33.835
			l15.083,15.083C407.407,227.891,407.407,241.373,399.065,249.715z"/>
	</g>
</g>
<g>
</g>
<g>
</g>
<g>
</g>
<g>
</g>
<g>
</g>
<g>
</g>
<g>
</g>
<g>
</g>
<g>
</g>
<g>
</g>
<g>
</g>
<g>
</g>
<g>
</g>
<g>
</g>
<g>
>
<g>
</g>
<g>
</g>
<g>
</g>
<g>
</g>
<g>
>
<g>
</g>
<g>
</g>
<g>
</g>
<g>
</g>
<g>
>
<g>
</g>
<g>
</g>
<g>
</g>
<g>
</g>
<g>
</g>
</svg>
